<svg width="140" height="140" viewBox="0 0 140 140" fill="none" xmlns="http://www.w3.org/2000/svg">
<g clip-path="url(#clip0_43_9)">
<rect width="140" height="140" fill="#81B29A"/>
<rect x="106.995" y="8" width="46.6667" height="140" transform="rotate(45 106.995 8)" fill="#81B29A"/>
<rect x="139.993" y="40.998" width="46.6667" height="140" transform="rotate(45 139.993 40.998)" fill="#F2CC8F"/>
<rect x="172.991" y="73.9971" width="46.6667" height="140" transform="rotate(45 172.991 73.9971)" fill="#E07A5F"/>
<path d="M109 12C109 12.2935 109.087 12.7685 109.303 13.4355C109.513 14.0863 109.824 14.857 110.221 15.7178C111.013 17.4384 112.118 19.4638 113.356 21.5215C115.844 25.6549 118.799 29.8051 120.722 31.8076L121 32.0977V128H95V32.0977L95.2783 31.8076C97.2008 29.8051 100.156 25.6549 102.644 21.5215C103.882 19.4638 104.987 17.4384 105.779 15.7178C106.176 14.857 106.487 14.0863 106.697 13.4355C106.913 12.7685 107 12.2935 107 12H109ZM102 58.625C100.862 58.625 99.8277 59.2454 99.1152 60.2744C98.4075 61.2968 98.0001 62.731 98 64.5V75.5H106V64.5C106 62.731 105.592 61.2968 104.885 60.2744C104.172 59.2454 103.138 58.625 102 58.625ZM114 58.625C112.862 58.625 111.828 59.2455 111.115 60.2744C110.408 61.2968 110 62.7311 110 64.5V75.5H118V64.5C118 62.731 117.593 61.2968 116.885 60.2744C116.172 59.2454 115.138 58.625 114 58.625ZM108 37.125C106.862 37.125 105.828 37.7455 105.115 38.7744C104.407 39.7968 104 41.2309 104 43V54H112V43C112 41.2309 111.593 39.7968 110.885 38.7744C110.172 37.7454 109.138 37.125 108 37.125Z" fill="black"/>
<path d="M59.4541 56.0059C69.2059 56.1036 75.4852 57.7264 79.334 60.9883C83.3634 64.4034 84.5 69.4085 84.5 75.501C84.5 80.4344 86.4285 83.011 88.707 84.3965C91.0674 85.8317 93.9609 86.0819 95.96 86.002L97 85.9609V128.001H71.5V99.5234C71.4201 97.6171 70.6757 94.7217 68.7129 92.3213C66.7777 89.9548 63.6063 88.001 58.5 88.001C53.3937 88.001 50.2223 89.9548 48.2871 92.3213C46.3243 94.7217 45.5799 97.6171 45.5 99.5234V128.001H20V85.9609L21.04 86.002C23.0391 86.0819 25.9326 85.8317 28.293 84.3965C30.5715 83.011 32.5 80.4344 32.5 75.501C32.5 69.4085 33.6366 64.4034 37.666 60.9883C41.6389 57.6212 48.2015 56.0005 58.5 56.001L59.4541 56.0059ZM58 66.5C55.5147 66.5 53.5 68.5147 53.5 71C53.5 73.4853 55.5147 75.5 58 75.5C60.4853 75.5 62.5 73.4853 62.5 71C62.5 68.5147 60.4853 66.5 58 66.5Z" fill="black"/>
</g>
<defs>
<clipPath id="clip0_43_9">
<rect width="140" height="140" fill="white"/>
</clipPath>
</defs>
</svg>
